<svg width="254" height="254" viewBox="0 0 254 254" fill="none" xmlns="http://www.w3.org/2000/svg">
<path d="M251.447 65.8955L221.285 42.6545C219.235 41.3387 217.007 40.325 214.668 39.6446C212.339 38.8908 209.914 38.4717 207.467 38.4H120.65L130.823 101.9H207.467C209.55 101.9 212.154 101.43 214.655 100.655C217.157 99.8807 219.57 98.8139 221.272 97.6582L251.435 74.3918C253.149 73.2361 254 71.6994 254 70.15C254 68.6006 253.149 67.0639 251.447 65.8955V65.8955ZM107.95 13H95.25C93.5659 13 91.9507 13.669 90.7599 14.8599C89.569 16.0507 88.9 17.6659 88.9 19.35V63.8H46.5328C44.4246 63.8 41.8338 64.2699 39.3319 65.0573C36.8173 65.8193 34.417 66.8734 32.7152 68.0545L2.5527 91.2955C0.8382 92.4512 0 94.0006 0 95.55C0 97.0867 0.8382 98.6234 2.5527 99.8045L32.7152 123.071C34.417 124.227 36.8173 125.293 39.3319 126.055C41.8338 126.83 44.4246 127.3 46.5328 127.3H88.9V235.25C88.9 236.934 89.569 238.549 90.7599 239.74C91.9507 240.931 93.5659 241.6 95.25 241.6H107.95C109.634 241.6 111.249 240.931 112.44 239.74C113.631 238.549 114.3 236.934 114.3 235.25V19.35C114.3 17.6659 113.631 16.0507 112.44 14.8599C111.249 13.669 109.634 13 107.95 13V13Z" fill="#F58634"/>
</svg>
