<svg width="100" height="80" viewBox="0 0 100 80" fill="none" xmlns="http://www.w3.org/2000/svg">
<path d="M93.8988 74.1843C92.543 74.1843 91.3773 74.6711 90.4018 75.6446C89.4263 76.6182 88.9385 77.7702 88.9385 79.1008H100L97.9167 53.4962L91.7659 44.8802L92.0635 32.0293L94.5437 39.8177C94.6429 40.1098 94.7007 40.7913 94.7173 41.8622C94.7338 42.9331 94.833 43.858 95.0149 44.6368C95.1968 45.4157 95.5192 45.8051 95.9821 45.8051H98.5119C98.7765 45.8051 98.9749 45.6591 99.1071 45.367C99.2394 45.0749 99.2394 44.718 99.1071 44.2961L92.9067 25.4091C92.2123 23.2348 91.3773 21.3526 90.4018 19.7624C89.4263 18.1723 88.4755 17.0202 87.5496 16.3063C86.6237 15.5924 85.7474 15.0244 84.9206 14.6026C84.0939 14.1807 83.4325 13.9373 82.9365 13.8724L82.1925 13.8237C81.5642 13.8237 80.8366 13.3775 80.0099 12.4851C79.1832 11.5927 78.2573 10.5055 77.2321 9.22366C76.207 7.94181 75.0579 6.65996 73.7847 5.37811C72.5116 4.09626 70.8995 3.00912 68.9484 2.11669C66.9974 1.22426 64.8809 0.778047 62.5992 0.778047H61.8304L59.871 0.972758L56.9692 1.58123L53.5962 2.94421L50 5.23207L46.6766 8.8099L43.8492 13.8237C43.1878 16.5821 41.9147 19.154 40.0298 21.5392C38.1448 23.9244 36.0284 25.117 33.6805 25.117C33.4491 25.117 33.2259 25.1089 33.0109 25.0927C32.796 25.0764 32.3661 24.9547 31.7212 24.7276C31.0764 24.5004 30.4977 24.184 29.9851 23.7784C29.4725 23.3727 28.8938 22.7074 28.249 21.7826C27.6042 20.8577 27.0585 19.7705 26.6121 18.5211C26.1657 17.2717 25.7854 15.6248 25.4712 13.5803C25.1571 11.5359 25 9.23177 25 6.66807V3.50401C25 1.6218 24.2063 0.680691 22.619 0.680691C21.9246 0.680691 21.3955 0.980871 21.0317 1.58123C20.668 2.18159 20.4696 2.77384 20.4365 3.35797V4.23418C20.0066 4.23418 19.5271 4.22606 18.998 4.20984C18.4689 4.19361 18.0969 4.1855 17.8819 4.1855C17.667 4.1855 17.4107 4.20172 17.1131 4.23418C16.8155 4.26663 16.5013 4.34776 16.1706 4.47757C15.2778 4.76963 14.3188 5.46735 13.2936 6.57072L5.40674 6.96014C4.15012 6.96014 3.15806 7.69031 2.43055 9.15064C1.70303 10.611 1.28967 12.0551 1.19047 13.483L0.992055 15.6735C0.992055 16.6146 1.31448 17.3123 1.95932 17.7666C2.60416 18.221 3.25727 18.4319 3.91864 18.3994C4.74536 18.3994 5.62168 17.8478 6.54761 16.7444L15.2778 15.7708C15.2116 19.4055 15.501 22.7561 16.1458 25.8228C16.7907 28.8895 17.8571 31.7534 19.3452 34.4145C20.8333 37.0755 22.9167 39.2823 25.5952 41.0347C28.2738 42.7871 31.4649 43.9229 35.1686 44.4421L31.498 59.9704L26.6865 74.1356H25C23.6442 74.1356 22.4868 74.6224 21.5278 75.596C20.5688 76.5695 20.0893 77.7216 20.0893 79.0521H30.0099L40.9226 56.7576L45.0893 48.9205L50.8432 58.4127L56.5972 74.1843H55.3571C54.0013 74.1843 52.8356 74.6711 51.8601 75.6446C50.8846 76.6182 50.3968 77.7702 50.3968 79.1008H61.8056L59.0278 55.5407L54.0179 44.6368H71.1806L75.8433 59.727L73.3631 74.1843H71.7758C70.42 74.1843 69.2543 74.6711 68.2788 75.6446C67.3032 76.6182 66.8155 77.7702 66.8155 79.1008H77.5794L85.3175 56.3682L86.3591 51.257L91.0218 57.3418L94.6429 74.1843H93.8988Z" fill="#F58634"/>
</svg>
