<svg width="254" height="254" viewBox="0 0 254 254" fill="none" xmlns="http://www.w3.org/2000/svg">
<path d="M241.3 184.15V69.8501C241.3 59.3091 232.791 50.8 222.25 50.8L44.323 50.8C33.7819 50.8 25.2729 59.3091 25.2729 69.8501L25.2729 184.15C25.2729 194.691 33.7819 203.2 44.323 203.2H222.25C232.791 203.2 241.3 194.691 241.3 184.15ZM224.663 68.453C228.854 72.6441 226.568 76.9621 224.282 79.1211L172.72 126.365L222.25 177.927C223.774 179.705 224.79 182.499 223.012 184.404C221.361 186.436 217.551 186.309 215.9 185.039L160.401 137.668L133.223 162.433L106.172 137.668L50.673 185.039C49.022 186.309 45.212 186.436 43.561 184.404C41.783 182.499 42.799 179.705 44.323 177.927L93.8529 126.365L42.2909 79.1211C40.0049 76.9621 37.7189 72.6441 41.9099 68.453C46.1009 64.262 50.419 66.2941 53.975 69.3421L133.223 133.35L212.598 69.3421C216.154 66.2941 220.472 64.262 224.663 68.453V68.453Z" fill="#F58634"/>
</svg>
