<svg width="100" height="87" viewBox="0 0 100 87" fill="none" xmlns="http://www.w3.org/2000/svg">
<path d="M14.2556 6.07513C14.2556 6.07513 7.43381 2.39988 5.5462 5.36346L8.26747 9.63685L1.45242 16.3689L0.203613 20.2339L1.85739 23.2585L6.71367 22.962L8.59111 24.9987L7.62867 32.8948C7.62867 32.8948 15.4129 33.3184 12.2359 21.6301H16.0179L16.35 25.2715L17.4378 31.1241C17.4378 31.1241 18.9492 37.7104 20.0608 37.5562C21.1724 37.4037 25.3678 41.6229 25.3678 41.6229L26.5268 48.3634L31.8812 54.1923C31.8812 54.1923 37.705 73.9444 36.0631 78.8735C34.4212 83.8044 34.7804 84.5872 34.7804 84.5872L39.1352 85.7411L42.7952 78.2127L41.2871 52.9723C41.2871 52.9723 53.0652 63.0661 67.1223 55.1818C67.1223 55.1818 68.0237 64.3454 71.2127 65.9365L69.2641 77.5807L65.8921 83.518L68.2576 85.1904L71.3279 84.5974L76.4655 74.3697L78.3344 55.7935L80.3305 51.4269L89.4381 39.3066C89.4381 39.3066 89.8956 34.9417 87.2201 32.4576C84.5429 29.9719 76.0639 25.9239 76.0639 25.9239L54.5953 24.8479L35.3227 27.3895L24.5206 10.0215L20.0608 6.4208C20.0608 6.4208 15.3231 5.41091 14.2556 6.07513V6.07513Z" fill="#F58634"/>
<path d="M89.4381 39.3066C89.4381 39.3066 86.4508 51.9946 85.5206 56.8271C84.9546 59.7602 84.3413 63.2965 84.3413 63.2965L86.2848 66.6786L79.0834 86.4833C79.0834 86.4833 72.6005 87.3763 71.6465 85.1904L76.9094 77.2689L77.6838 67.8444L78.4243 54.8175L80.3305 51.4269L89.4381 39.3066V39.3066Z" fill="#F58634"/>
<path d="M13.7186 8.43233L19.3882 1.71724L28.2807 0.8158L35.5329 7.16149C35.5329 7.16149 24.0954 -0.2517 20.0609 9.59811L13.7186 8.43233Z" fill="#F58634"/>
<path d="M33.7334 60.3262L41.5702 61.4903L42.9478 75.788L39.5657 84.8567H33.7334L36.6987 76.847L33.7334 60.3262Z" fill="#F58634"/>
<path d="M77.6838 67.8445L71.0111 68.6917L68.4966 78.9329L65.8922 83.5181L66.5937 84.8567L70.5875 85.7429L75.2472 78.0721L77.6838 67.8445Z" fill="#F58634"/>
<path d="M99.0762 22.9061C99.0762 22.9061 102.394 40.4317 89.2264 40.2115C89.2264 40.2115 89.1315 34.9485 87.2202 32.4577L91.4021 28.1114C91.4021 28.1114 94.3708 24.2955 94.5555 24.1752C94.7402 24.0549 99.0762 22.9061 99.0762 22.9061V22.9061Z" fill="#F58634"/>
</svg>
