<svg width="134" height="134" viewBox="0 0 134 134" fill="none" xmlns="http://www.w3.org/2000/svg">
<circle cx="67" cy="67" r="64" fill="#F79647" stroke="white" stroke-width="6"/>
<path d="M61.8225 58.5723C69.4625 58.5723 75.6559 52.4536 75.6559 44.9057C75.6559 37.3578 69.4625 31.239 61.8225 31.239C54.1826 31.239 47.9892 37.3578 47.9892 44.9057C47.9892 52.4536 54.1826 58.5723 61.8225 58.5723Z" fill="white"/>
<path d="M65.9033 98.4787C65.1414 97.7342 64.6442 96.7658 64.4863 95.7187C64.3283 94.6715 64.5181 93.602 65.0272 92.6704L66.2492 90.3926L63.7361 89.6409C62.7113 89.324 61.8191 88.6855 61.195 87.8222C60.5709 86.9589 60.2488 85.9181 60.2778 84.8576V80.1881C60.2758 79.1323 60.6177 78.1039 61.253 77.2548C61.8882 76.4057 62.783 75.7811 63.8053 75.4731L66.3183 74.7215L65.1194 72.4437C64.6253 71.5248 64.4372 70.4753 64.5821 69.4446C64.727 68.414 65.1974 67.4548 65.9264 66.7037C64.1527 66.474 62.3663 66.3523 60.5775 66.3392C55.2939 66.2164 50.048 67.2469 45.2138 69.3572C40.3797 71.4676 36.0765 74.6058 32.6111 78.5481V96.2009C32.6111 96.805 32.854 97.3844 33.2864 97.8115C33.7188 98.2387 34.3052 98.4787 34.9167 98.4787H65.9033V98.4787Z" fill="white"/>
<path d="M105.697 79.4367L101.086 78.0701C100.767 76.9451 100.318 75.8599 99.7489 74.8356L102.054 70.599C102.144 70.4417 102.176 70.2593 102.147 70.0814C102.118 69.9035 102.028 69.7407 101.893 69.6195L98.55 66.294C98.4213 66.1702 98.2571 66.0885 98.0798 66.0599C97.9024 66.0314 97.7205 66.0575 97.5586 66.1345L93.2934 68.4123C92.2435 67.8488 91.1389 67.391 89.9964 67.0456L88.59 62.4901C88.5281 62.3221 88.4151 62.1772 88.2665 62.0752C88.1179 61.9733 87.941 61.9193 87.76 61.9206H82.9645C82.7847 61.9256 82.6108 61.9851 82.4665 62.091C82.3221 62.197 82.2142 62.3443 82.1575 62.5129L80.7742 67.0684C79.6095 67.4032 78.4878 67.8694 77.4311 68.4579L73.2581 66.1801C73.0958 66.0949 72.9106 66.0622 72.7285 66.0868C72.5465 66.1113 72.3769 66.1918 72.2436 66.3167L68.8545 69.5967C68.721 69.7238 68.6331 69.8903 68.604 70.0712C68.5749 70.252 68.6061 70.4373 68.6931 70.599L70.9986 74.7445C70.381 75.7734 69.8785 76.8655 69.5 78.0017L64.8889 79.3912C64.7145 79.441 64.5614 79.546 64.4531 79.6899C64.3449 79.8339 64.2874 80.009 64.2895 80.1884V84.8579C64.2874 85.0372 64.3449 85.2123 64.4531 85.3563C64.5614 85.5003 64.7145 85.6053 64.8889 85.6551L69.5 87.0445C69.8457 88.1601 70.3093 89.2366 70.8834 90.2562L68.5778 94.584C68.4909 94.7457 68.4596 94.9309 68.4887 95.1118C68.5178 95.2926 68.6057 95.4591 68.7392 95.5862L72.1745 98.889C72.3077 99.014 72.4773 99.0944 72.6594 99.1189C72.8414 99.1435 73.0267 99.1108 73.1889 99.0256L77.5003 96.7479C78.5263 97.293 79.6084 97.7283 80.7281 98.0462L82.1114 102.716C82.1694 102.888 82.2808 103.038 82.4297 103.144C82.5787 103.25 82.7577 103.308 82.9414 103.308H87.6678C87.8476 103.303 88.0214 103.243 88.1658 103.137C88.3102 103.032 88.418 102.884 88.4747 102.716L89.8581 98.0462C90.9644 97.7322 92.0316 97.2967 93.0397 96.7479L97.3972 99.0256C97.5595 99.1108 97.7447 99.1435 97.9268 99.1189C98.1088 99.0944 98.2785 99.014 98.4117 98.889L101.778 95.5862C101.904 95.4546 101.986 95.287 102.011 95.1071C102.035 94.9273 102.002 94.7443 101.916 94.584L99.6106 90.3017C100.162 89.3039 100.603 88.2499 100.925 87.1584L105.536 85.769C105.709 85.7139 105.861 85.6082 105.972 85.4659C106.084 85.3236 106.148 85.1512 106.158 84.9717V80.2567C106.164 80.0916 106.124 79.9281 106.043 79.7836C105.962 79.6392 105.842 79.5193 105.697 79.4367V79.4367ZM85.3392 90.1879C83.8152 90.1924 82.3241 89.75 81.0547 88.9168C79.7853 88.0836 78.7948 86.897 78.2084 85.5073C77.622 84.1175 77.4662 82.5871 77.7607 81.1099C78.0553 79.6326 78.7868 78.2749 79.8629 77.2087C80.9389 76.1424 82.3109 75.4156 83.8053 75.1202C85.2997 74.8248 86.8492 74.9741 88.2577 75.5493C89.6661 76.1244 90.8701 77.0995 91.7173 78.3511C92.5645 79.6026 93.0167 81.0744 93.0167 82.5801C93.0167 84.5938 92.2086 86.5255 90.7694 87.9516C89.3303 89.3776 87.3775 90.1818 85.3392 90.1879Z" fill="white"/>
</svg>
