<svg width="254" height="254" viewBox="0 0 254 254" fill="none" xmlns="http://www.w3.org/2000/svg">
<path d="M184.151 232.834C140.942 232.778 99.5192 215.589 68.966 185.035C38.4129 154.482 21.2235 113.059 21.1675 69.8506C21.1675 56.9389 26.2966 44.5561 35.4265 35.4262C44.5564 26.2963 56.9392 21.1672 69.8508 21.1672C72.5849 21.1464 75.3144 21.3945 78 21.9081C80.5962 22.2922 83.1484 22.9303 85.62 23.8131C87.3583 24.423 88.9073 25.4761 90.1138 26.8682C91.3203 28.2603 92.1425 29.9432 92.4991 31.7506L106.998 95.2506C107.389 96.9742 107.342 98.7683 106.861 100.469C106.381 102.17 105.482 103.723 104.247 104.987C102.871 106.469 102.765 106.575 89.7475 113.348C100.172 136.217 118.462 154.582 141.288 165.101C148.167 151.977 148.273 151.871 149.755 150.496C151.019 149.26 152.572 148.361 154.273 147.881C155.974 147.4 157.768 147.353 159.492 147.744L222.992 162.243C224.741 162.649 226.358 163.493 227.692 164.697C229.025 165.9 230.03 167.423 230.612 169.122C231.505 171.634 232.178 174.219 232.622 176.848C233.048 179.508 233.261 182.198 233.257 184.891C233.062 197.748 227.789 210.005 218.589 218.987C209.388 227.969 197.008 232.947 184.151 232.834V232.834Z" fill="#F58634"/>
</svg>
