<?xml version="1.0" encoding="UTF-8"?>
<!DOCTYPE svg PUBLIC "-//W3C//DTD SVG 1.1//EN" "http://www.w3.org/Graphics/SVG/1.1/DTD/svg11.dtd">
<!-- Creator: CorelDRAW 2019 (64-Bit) -->
<svg xmlns="http://www.w3.org/2000/svg" xml:space="preserve" width="7.2mm" height="7.2mm" version="1.1" style="shape-rendering:geometricPrecision; text-rendering:geometricPrecision; image-rendering:optimizeQuality; fill-rule:evenodd; clip-rule:evenodd"
viewBox="0 0 720 720"
 xmlns:xlink="http://www.w3.org/1999/xlink">
 <defs>
  <style type="text/css">
   <![CDATA[
    .str0 {stroke:#FEFEFE;stroke-width:7.62;stroke-miterlimit:22.9256}
    .fil0 {fill:#F79647}
    .fil1 {fill:#FEFEFE}
   ]]>
  </style>
 </defs>
 <g id="Layer_x0020_1">
  <metadata id="CorelCorpID_0Corel-Layer"/>
  <rect class="fil0" x="-21" y="-21" width="762" height="762"/>
  <path class="fil1 str0" d="M351.74 163.32c6.87,-0.64 15.25,-0.55 23.62,0.65l15.83 3.72c35.76,10.1 66.24,45.29 70.72,88.69 5.77,55.97 -37.02,105.75 -92.95,110.79 -15.79,1.42 -31.37,-1.03 -44.62,-6 -21.53,-8.07 -44.45,-26.33 -54.77,-47.88 -5.17,-10.81 -9.49,-21.69 -10.91,-33.82l-0.67 -5.13c-2.22,-18.88 2.35,-35.24 8.24,-50.28l6.3 -12.47c7.81,-13.06 19.22,-23.42 31.41,-31.99 2.61,-1.83 5.03,-3.43 7.9,-4.86l7.19 -3.32c9.34,-4.52 21.82,-7.08 32.71,-8.1zm83.74 214.32c2.68,-3.26 17.11,-11.56 33.19,-32.4 7.28,-9.45 13.59,-22.07 18.24,-33.81 2.86,-7.2 5.72,-20.16 6.75,-27.78l1.11 -12.01c1.04,-39.82 -11.37,-72.12 -37.24,-99.7 -2.66,-2.85 -10.25,-10.46 -14.5,-13.31 -9.91,-6.64 -20.03,-13.99 -35.74,-19.9 -36.89,-13.88 -78.06,-10.57 -112.78,8.43 -16.35,8.95 -32.97,23.19 -44,38.99 -35.82,51.38 -33.34,119.99 4.95,164.31 6.27,7.25 19.67,22.02 28.9,25.8 -1.23,1.98 -1.09,1.92 -3.99,3.29 -21.75,10.23 -19.76,8.58 -40.91,23.21 -7.8,5.4 -8.35,7.03 -12.87,10.23 -13.51,9.53 -33.97,35.27 -42.26,50.13 -5.42,9.72 -10.95,19.18 -15.26,30.98 -8.54,23.35 -15.54,53.59 -13.49,78.85 0.71,8.79 4.51,15.49 12.11,16.57 5.09,0.73 9.57,-0.2 13.07,-3.23 12.17,-10.49 0,-29.98 17.24,-75.18 1.01,-2.63 2.41,-5.71 3.68,-8.43 11.83,-25.27 28.86,-47.68 50.13,-65.32 15.8,-13.11 17.92,-15.02 37.55,-25.07l48.36 -15.64c15.28,-2.16 28.19,-2.41 43.68,-0.16 25.3,3.67 45.24,12.48 66.82,25.62l13.64 9.51c13.01,9.14 35.55,34.18 44.18,48.49 4.4,7.29 11.12,18.67 15.63,30.38 4.34,11.24 8.01,23.57 9.8,36.4 1.66,11.92 0.03,32.45 7.2,39 4.61,4.2 15.59,6.17 21.73,-0.86 8.48,-9.73 2.35,-45.94 0.5,-55.73 -1.23,-6.53 -2.72,-12.19 -4.42,-18.61l-17.03 -41.11c-24.83,-44.15 -58.27,-72.5 -103.97,-91.94z"/>
 </g>
</svg>
