<svg width="72" height="72" viewBox="0 0 72 72" fill="none" xmlns="http://www.w3.org/2000/svg">
<circle cx="36" cy="36" r="35.5" stroke="#26D0A9"/>
<g clip-path="url(#clip0)">
<path d="M50.875 19H20.125C17.2902 19 15 21.2902 15 24.125V44.625C15 47.4598 17.2902 49.75 20.125 49.75H30.375L26.9557 60L42.3307 49.75H50.875C53.7098 49.75 56 47.4598 56 44.625V24.125C56 21.2902 53.7098 19 50.875 19Z" fill="#26D0A9"/>
<path d="M45.5 27C45.5 26.1716 44.8284 25.5 44 25.5H30.5C29.6716 25.5 29 26.1716 29 27C29 27.8284 29.6716 28.5 30.5 28.5H42.5V40.5C42.5 41.3284 43.1716 42 44 42C44.8284 42 45.5 41.3284 45.5 40.5V27ZM29.0607 44.0607L45.0607 28.0607L42.9393 25.9393L26.9393 41.9393L29.0607 44.0607Z" fill="white"/>
</g>
<defs>
<clipPath id="clip0">
<rect width="41" height="41" fill="white" transform="translate(15 19)"/>
</clipPath>
</defs>
</svg>
