<svg width="72" height="72" viewBox="0 0 72 72" fill="none" xmlns="http://www.w3.org/2000/svg">
<circle cx="36" cy="36" r="35.5" stroke="#26D0A9"/>
<path d="M31.9167 46.6667V28.3333C31.9167 27.1178 32.3996 25.952 33.2591 25.0924C34.1186 24.2329 35.2844 23.75 36.5 23.75H57.125V21.4583C57.125 18.9375 55.0625 16.875 52.5417 16.875H20.4583C19.2428 16.875 18.077 17.3579 17.2174 18.2174C16.3579 19.077 15.875 20.2428 15.875 21.4583V53.5417C15.875 54.7572 16.3579 55.923 17.2174 56.7826C18.077 57.6421 19.2428 58.125 20.4583 58.125H52.5417C55.0625 58.125 57.125 56.0625 57.125 53.5417V51.25H36.5C35.2844 51.25 34.1186 50.7671 33.2591 49.9076C32.3996 49.048 31.9167 47.8822 31.9167 46.6667V46.6667ZM38.7917 28.3333C37.5313 28.3333 36.5 29.3646 36.5 30.625V44.375C36.5 45.6354 37.5313 46.6667 38.7917 46.6667H59.4167V28.3333H38.7917ZM45.6667 40.9375C43.7646 40.9375 42.2292 39.4021 42.2292 37.5C42.2292 35.5979 43.7646 34.0625 45.6667 34.0625C47.5688 34.0625 49.1042 35.5979 49.1042 37.5C49.1042 39.4021 47.5688 40.9375 45.6667 40.9375Z" fill="#26D0A9"/>
</svg>
