<svg width="62" height="62" viewBox="0 0 62 62" fill="none" xmlns="http://www.w3.org/2000/svg">
<path d="M47.7917 50.375H14.2083L6.45834 58.125V14.2083C6.45834 9.94583 9.94584 6.45833 14.2083 6.45833H47.7917C52.0542 6.45833 55.5417 9.94583 55.5417 14.2083V42.625C55.5417 46.8875 52.0542 50.375 47.7917 50.375Z" fill="#009688"/>
<path d="M31 32.2917C33.1401 32.2917 34.875 30.5568 34.875 28.4167C34.875 26.2766 33.1401 24.5417 31 24.5417C28.8599 24.5417 27.125 26.2766 27.125 28.4167C27.125 30.5568 28.8599 32.2917 31 32.2917Z" fill="white"/>
<path d="M43.9167 32.2917C46.0568 32.2917 47.7917 30.5568 47.7917 28.4167C47.7917 26.2766 46.0568 24.5417 43.9167 24.5417C41.7766 24.5417 40.0417 26.2766 40.0417 28.4167C40.0417 30.5568 41.7766 32.2917 43.9167 32.2917Z" fill="white"/>
<path d="M18.0833 32.2917C20.2234 32.2917 21.9583 30.5568 21.9583 28.4167C21.9583 26.2766 20.2234 24.5417 18.0833 24.5417C15.9432 24.5417 14.2083 26.2766 14.2083 28.4167C14.2083 30.5568 15.9432 32.2917 18.0833 32.2917Z" fill="white"/>
</svg>
