<svg width="23" height="33" viewBox="0 0 23 33" fill="none" xmlns="http://www.w3.org/2000/svg">
<path d="M22.875 11.625C22.875 10.1312 22.5808 8.65205 22.0091 7.27198C21.4375 5.8919 20.5996 4.63793 19.5433 3.58166C18.4871 2.52539 17.2331 1.68752 15.853 1.11587C14.4729 0.544223 12.9938 0.25 11.5 0.25C10.0062 0.25 8.52705 0.544223 7.14698 1.11587C5.7669 1.68752 4.51293 2.52539 3.45666 3.58166C2.40039 4.63793 1.56252 5.8919 0.99087 7.27198C0.419223 8.65205 0.125 10.1312 0.125 11.625C0.125 13.8789 0.79125 15.9751 1.92063 17.7431H1.90763C5.74263 23.7475 11.5 32.75 11.5 32.75L21.0924 17.7431H21.081C22.2517 15.9172 22.8743 13.794 22.875 11.625V11.625ZM11.5 16.5C10.2071 16.5 8.96709 15.9864 8.05285 15.0721C7.13861 14.1579 6.625 12.9179 6.625 11.625C6.625 10.3321 7.13861 9.09209 8.05285 8.17785C8.96709 7.26361 10.2071 6.75 11.5 6.75C12.7929 6.75 14.0329 7.26361 14.9471 8.17785C15.8614 9.09209 16.375 10.3321 16.375 11.625C16.375 12.9179 15.8614 14.1579 14.9471 15.0721C14.0329 15.9864 12.7929 16.5 11.5 16.5Z" fill="#358368"/>
</svg>
