<svg width="28" height="28" viewBox="0 0 28 28" fill="none" xmlns="http://www.w3.org/2000/svg">
<path d="M27.5901 13.9863L23.6252 26.2517C23.37 26.7252 23.0055 27.1304 22.5315 27.4673C22.0575 27.8042 21.5289 27.9818 20.9456 28C20.4351 27.9818 19.9247 27.7951 19.4143 27.44C18.9039 27.0849 18.5575 26.6888 18.3752 26.2517L14.4104 13.9863C13.9911 12.9301 13.9045 12.0833 14.1506 11.4459C14.3967 10.8085 14.8479 10.4898 15.5041 10.4898H26.4963C27.1526 10.4898 27.6038 10.8085 27.8499 11.4459C28.0959 12.0833 28.0094 12.9301 27.5901 13.9863ZM20.8635 28H21.0276H20.8635ZM15.7502 5.24488C15.7502 3.78797 16.2652 2.54959 17.2952 1.52976C18.3251 0.509919 19.5647 0 21.0139 0C22.4631 0 23.6982 0.509919 24.719 1.52976C25.7398 2.54959 26.2502 3.78797 26.2502 5.24488C26.2502 6.70179 25.7398 7.94016 24.719 8.96C23.6982 9.97984 22.4631 10.4898 21.0139 10.4898C19.5647 10.4898 18.3251 9.97984 17.2952 8.96C16.2652 7.94016 15.7502 6.70179 15.7502 5.24488ZM12.4963 28H1.4768C0.838783 28 0.396725 27.6813 0.150631 27.0439C-0.0954624 26.4065 -0.0179885 25.5597 0.383053 24.5034L5.19555 10.162C4.17472 9.77951 3.34074 9.14211 2.6936 8.24976C2.04646 7.3574 1.7229 6.35577 1.7229 5.24488C1.7229 3.78797 2.23787 2.54959 3.26782 1.52976C4.29777 0.509919 5.53735 0 6.98657 0C8.43579 0 9.67537 0.509919 10.7053 1.52976C11.7353 2.54959 12.2502 3.78797 12.2502 5.24488C12.2502 6.37398 11.9176 7.38927 11.2522 8.29073C10.5868 9.1922 9.73462 9.82504 8.69555 10.1893L13.5901 24.5034C14.0094 25.5597 14.0914 26.4065 13.8362 27.0439C13.581 27.6813 13.1344 28 12.4963 28Z" fill="#358368"/>
</svg>
