<?xml version="1.0" encoding="utf-8"?>
<!-- Generator: Adobe Illustrator 23.0.1, SVG Export Plug-In . SVG Version: 6.00 Build 0)  -->
<svg version="1.1" id="Capa_1" xmlns="http://www.w3.org/2000/svg" xmlns:xlink="http://www.w3.org/1999/xlink" x="0px" y="0px"
	 viewBox="0 0 512 512" style="enable-background:new 0 0 512 512;" xml:space="preserve">
<style type="text/css">
	.st0{fill:#1F9F49;}
	.st1{fill:#FEC753;}
	.st2{fill:#E0A336;}
	.st3{fill:#FFFFFF;}
	.st4{fill:#FFE6A9;}
</style>
<g>
	<circle class="st0" cx="260" cy="256" r="75"/>
	<path class="st1" d="M317.2,189H209.8c-9.8,0-17.8,8-17.8,17.8v60.9c0,9.8,8,17.8,17.8,17.8c6,0,11,4.9,11,11v13.3
		c0,3.9,5.2,5.4,7.3,2.1l8.3-13.1c5.2-8.3,14.3-13.3,24-13.3h56.9c9.8,0,17.8-8,17.8-17.8v-60.9C335,197,327,189,317.2,189z"/>
	<path class="st2" d="M228.1,285.6c-9.8,0-17.8-8-17.8-17.8v-60.9c0-9.8,8-17.8,17.8-17.8h-19.5c-9.8,0-17.8,8-17.8,17.8v60.9
		c0,9.8,8,17.8,17.8,17.8c6,0,11,4.9,11,11v13.3c0,3.9,5.2,5.4,7.3,2.1l8.3-13.1c1.1-1.7,2.3-3.3,3.7-4.7
		C237.7,289.2,233.4,285.6,228.1,285.6L228.1,285.6z"/>
	<g>
		<path class="st3" d="M236.3,237.4c2.9,0,5.3,1.2,7.2,3.5c1.9,2.3,2.5,5,1.9,8c-0.4,2.2-1.5,4-3.3,5.4c-1.7,1.4-3.7,2.1-6,2.1h0
			c-2.1,0-4-0.6-5.6-1.9c-1.6-1.2-2.7-2.8-3.3-4.8c-0.2-0.7-0.1-1.3,0.3-1.9c0.4-0.6,1-0.9,1.7-0.9c1,0,1.7,0.5,2,1.5
			c0.3,1.1,0.9,2,1.8,2.7c0.9,0.7,2,1.1,3.1,1.1h0.1c1.2,0,2.2-0.4,3.2-1.1c1-0.7,1.6-1.6,1.9-2.8c0.4-1.7,0.1-3.3-0.9-4.6
			c-1-1.3-2.3-2-4-2.1c-2.4,0-4.4-0.9-6-2.5c-1.7-1.6-2.5-3.6-2.5-6v-0.6c0-2.4,0.8-4.4,2.5-6c1.6-1.7,3.6-2.5,6-2.5h0.1
			c1.8,0,3.5,0.5,4.9,1.6c1.5,1.1,2.5,2.5,3,4.2c0.2,0.7,0.1,1.3-0.3,1.9c-0.4,0.6-1,0.9-1.7,0.9h0c-1,0-1.6-0.5-1.9-1.4
			c-0.3-0.9-0.8-1.6-1.5-2.1c-0.7-0.6-1.6-0.8-2.5-0.8h-0.1c-1.2,0-2.2,0.4-3,1.3c-0.8,0.8-1.3,1.9-1.3,3.1v0.7c0,1.2,0.4,2.2,1.3,3
			C234.1,237,235.1,237.4,236.3,237.4L236.3,237.4z"/>
		<path class="st3" d="M271.4,224c0.6,0,1.1,0.2,1.5,0.6c0.4,0.4,0.6,0.9,0.6,1.4v28.1c0,0.6-0.2,1.1-0.6,1.5
			c-0.4,0.4-0.9,0.6-1.5,0.6c-0.6,0-1-0.2-1.4-0.6c-0.4-0.4-0.6-0.9-0.6-1.5v-19.6l-6,11.8c-0.1,0.1-0.2,0.2-0.2,0.3
			c-0.2,0.2-0.4,0.4-0.6,0.6c-0.5,0.2-1,0.3-1.6,0.1c-0.5-0.2-0.9-0.5-1.2-1l-6-11.7v19.6c0,0.6-0.2,1.1-0.6,1.5
			c-0.4,0.4-0.9,0.6-1.5,0.6c-0.6,0-1.1-0.2-1.5-0.6c-0.4-0.4-0.6-0.9-0.6-1.5v-28.1c0-0.6,0.2-1.1,0.6-1.4c0.4-0.4,0.9-0.6,1.5-0.6
			c0.8,0,1.4,0.4,1.8,1.1c0,0,0,0,0,0l0,0l8,15.7l8.1-15.7c0,0,0,0,0.1-0.2c0-0.1,0.1-0.1,0-0.1c0.1-0.1,0.1-0.1,0.2-0.2
			c0.4-0.5,0.6-0.7,0.6-0.7S270.8,224,271.4,224L271.4,224z"/>
		<path class="st3" d="M286.2,237.4c2.9,0,5.3,1.2,7.2,3.5c1.9,2.3,2.5,5,1.9,8c-0.4,2.2-1.5,4-3.3,5.4c-1.7,1.4-3.7,2.1-6,2.1h0
			c-2.1,0-4-0.6-5.6-1.9c-1.6-1.2-2.7-2.8-3.3-4.8c-0.2-0.7-0.1-1.3,0.3-1.9c0.4-0.6,1-0.9,1.7-0.9c1,0,1.7,0.5,2,1.5
			c0.3,1.1,0.9,2,1.8,2.7c0.9,0.7,2,1.1,3.1,1.1h0.1c1.2,0,2.2-0.4,3.2-1.1c1-0.7,1.6-1.6,1.9-2.8c0.4-1.7,0.1-3.3-0.9-4.6
			c-1-1.3-2.3-2-4-2.1c-2.4,0-4.4-0.9-6-2.5c-1.7-1.6-2.5-3.6-2.5-6v-0.6c0-2.4,0.8-4.4,2.5-6c1.6-1.7,3.6-2.5,6-2.5h0.1
			c1.8,0,3.5,0.5,4.9,1.6c1.4,1.1,2.5,2.5,3,4.2c0.2,0.7,0.1,1.3-0.3,1.9c-0.4,0.6-1,0.9-1.7,0.9h0c-1,0-1.6-0.5-1.9-1.4
			c-0.3-0.9-0.8-1.6-1.5-2.1c-0.7-0.6-1.6-0.8-2.5-0.8h-0.1c-1.2,0-2.2,0.4-3,1.3c-0.8,0.8-1.3,1.9-1.3,3.1v0.7c0,1.2,0.4,2.2,1.3,3
			C284,237,285,237.4,286.2,237.4L286.2,237.4z"/>
	</g>
	<circle class="st4" cx="321.6" cy="204.6" r="6.7"/>
	<circle class="st4" cx="309.9" cy="216.3" r="4.9"/>
</g>
</svg>
